<?xml version="1.0" encoding="UTF-8" standalone="no"?>
<svg width="233px" height="261px" viewBox="0 0 233 261" version="1.1" xmlns="http://www.w3.org/2000/svg" xmlns:xlink="http://www.w3.org/1999/xlink" xmlns:sketch="http://www.bohemiancoding.com/sketch/ns">
    <!-- Generator: Sketch 3.4.4 (17249) - http://www.bohemiancoding.com/sketch -->
    <title>Group</title>
    <desc>Created with Sketch.</desc>
    <defs></defs>
    <g id="Page-1" stroke="none" stroke-width="1" fill="none" fill-rule="evenodd" sketch:type="MSPage">
        <g id="Mobile-Portrait" sketch:type="MSArtboardGroup" transform="translate(-39.000000, -647.000000)">
            <g id="Group" sketch:type="MSLayerGroup" transform="translate(47.000000, 621.000000)">
                <path d="M88.8675886,271.628202 C100.264134,253.074278 94.9578454,227.837778 106.484391,213.640364 C106.003915,213.894547 138.850342,195.462117 138.954304,194.349592 C141.560356,166.461678 122.782628,124.997423 130.629082,106.714598 C137.898721,89.7757948 75.6414191,31.2682245 75.6414191,31.2682245 L175.63028,13.0742777 L175.63028,253.074278 L50.6335875,297.022703 C50.6335875,297.022703 77.4710432,290.182127 88.8675886,271.628202 Z" id="Rectangle-2" stroke="#979797" fill="#D8D8D8" sketch:type="MSShapeGroup" transform="translate(113.131934, 155.048490) rotate(22.000000) translate(-113.131934, -155.048490) "></path>
                <rect id="Rectangle-4" stroke="#979797" stroke-width="6" fill="#C29494" sketch:type="MSShapeGroup" x="167" y="87" width="57" height="105" rx="12"></rect>
                <ellipse id="Oval-4" stroke="#937E7E" stroke-width="16" fill-opacity="0.620000005" fill="#393BB2" sketch:type="MSShapeGroup" cx="62" cy="194" rx="62" ry="85"></ellipse>
                <rect id="Rectangle-3" stroke="#7C5959" stroke-width="4" fill="#AE7F7F" sketch:type="MSShapeGroup" x="83" y="50" width="82" height="178"></rect>
            </g>
        </g>
    </g>
</svg>