<?xml version="1.0" encoding="UTF-8" standalone="no"?>
<svg width="282px" height="256px" viewBox="0 0 282 256" version="1.1" xmlns="http://www.w3.org/2000/svg" xmlns:xlink="http://www.w3.org/1999/xlink" xmlns:sketch="http://www.bohemiancoding.com/sketch/ns">
    <!-- Generator: Sketch 3.4.4 (17249) - http://www.bohemiancoding.com/sketch -->
    <title>Mobile Portrait</title>
    <desc>Created with Sketch.</desc>
    <defs></defs>
    <g id="Page-1" stroke="none" stroke-width="1" fill="none" fill-rule="evenodd" sketch:type="MSPage">
        <g id="Mobile-Portrait" sketch:type="MSArtboardGroup" transform="translate(-38.000000, -165.000000)">
            <circle id="Oval-6" stroke="#ED1818" stroke-width="11" fill="#D8D8D8" sketch:type="MSShapeGroup" cx="172" cy="301" r="107"></circle>
            <ellipse id="Oval-10" stroke="#979797" fill="#D8D8D8" sketch:type="MSShapeGroup" cx="179" cy="291" rx="4" ry="5"></ellipse>
            <path d="M121.890625,279.882812 C121.890625,279.882812 134.066571,244.455119 144,240.105469 C153.769696,235.827514 181,254 181,254 C181,254 200.554688,289.699219 200.554688,301.105469 C200.554688,309.075972 163.671606,314.761377 160,322.882812 C154.338661,335.405451 181,349 181,349 C181,349 171.49349,384.476562 160,384.476562 C146.826823,384.476562 107,349 107,349 L121.890625,279.882812 Z" id="Rectangle-5" stroke="#979797" stroke-width="6" fill="#D8D8D8" sketch:type="MSShapeGroup"></path>
            <path d="M184.628906,309.773437 C204.774878,309.773437 220.034756,303.376067 241,298.664062 C437.817987,254.428604 157.605162,317.274907 243.964844,295.699219 C261.115854,291.414293 250.310354,295.767491 263.480469,291.996094 C264.496398,291.705172 264.489775,291.729777 259.519531,294.957031 C258.339009,295.723562 253.889798,294.993601 255.296875,294.957031 C266.172288,294.674378 282.958711,284.539767 287.925781,294.21875 C294.023735,306.101407 210.319728,311.226845 268.40625,306.808594 C284.426484,305.590042 300.490948,304.888256 316.554688,304.589844 C319.399404,304.536998 310.851161,305.181218 308.148438,306.070312 C304.05251,307.41772 300.374517,309.852133 296.296875,311.253906 C284.554343,315.290644 272.422781,318.154581 260.742188,322.367187 C257.312124,323.60424 254.032393,325.370964 251.109375,327.550781 C250.574951,327.949323 250.539294,329.205164 251.109375,329.550781 C254.798008,331.787053 259.17786,332.672929 262.964844,334.738281 C267.352871,337.131432 280.329054,344.361792 275.554688,342.882812 L277.035156,346.105469 C272.499531,344.700446 268.474684,341.953408 264.445312,339.441406 C253.807188,332.809357 244.762975,323.229864 233.074219,318.699219 C227.042279,316.361196 241.674367,328.438046 246.667969,332.550781 C252.429622,337.296084 259.298288,340.553484 265.183594,345.144531 C271.667185,350.202293 279.853919,354.174941 283.703125,361.441406 C285.245789,364.35362 277.093725,361.78779 273.816406,361.441406 C265.377133,360.549451 257.077627,356.936856 248.628906,357.734375 C243.540171,358.214728 258.198263,361.502555 263.222656,362.441406 C269.310163,363.578909 275.630233,362.924045 281.742188,363.921875 C287.770611,364.906068 294.120484,365.510473 299.519531,368.367187 C300.981183,369.140569 300.058926,371.764924 299.519531,373.328125 C299.229164,374.16963 298.118634,374.466314 297.296875,374.808594 C295.134099,375.709434 292.937663,376.632812 290.628906,377.03125 C285.73896,377.875141 280.777509,378.409856 275.816406,378.515625 C269.987156,378.639902 256.346442,379.548267 249.148438,375.550781 C246.687249,374.183935 245.10162,369.339917 242.480469,370.367187 C240.223079,371.251894 243.546494,375.162072 244.703125,377.292969 C248.758492,384.764292 254.596209,391.258642 258.039062,399.03125 C258.539505,400.161053 255.391714,399.666836 254.332031,399.03125 C241.178867,391.142126 244.180581,389.686369 234.332031,378.292969 C224.958776,367.449418 216.722567,355.288103 205.445312,346.441406 C203.225109,344.699718 204.193316,352.037091 204.445312,354.847656 C205.101842,362.170046 206.175548,369.507744 208.148438,376.589844 C209.144757,380.166341 208.580509,368.99865 207.40625,365.476562 C206.280152,362.098927 203.890852,359.210258 201.480469,356.589844 C198.162273,352.982514 193.836264,350.42342 190.371094,346.957031 C190.022205,346.60802 190.855896,345.568751 190.371094,345.476562 C186.542597,344.748546 182.592448,344.984375 178.703125,344.738281" id="Path-15" stroke="#ECC376" stroke-width="4" sketch:type="MSShapeGroup"></path>
            <path d="M185.554688,325.105469 C274.883897,316.409218 184.043922,328.344476 246.554688,313.253906 C253.07509,311.679832 260.028046,312.579253 266.554688,311.03125 C270.002017,310.213605 259.437242,310.559796 255.925781,311.03125 C253.834906,311.311974 252.107701,313.163558 250,313.253906 C234.705451,313.909519 189.987097,319.246071 204.074219,313.253906 C219.23573,306.804734 237.243322,314.569565 253.480469,311.773437 C262.079697,310.292602 285.749657,299.002091 277.183594,300.664062 L260.148438,300.664062 C249.027059,302.821811 238.519012,307.442614 227.554688,310.292969 C218.8925,312.544845 212.7337,311.571684 201.628906,313.253906 C199.990924,313.502038 198.665365,314.735677 197.183594,315.476562" id="Path-16" stroke="#E2B6B6" sketch:type="MSShapeGroup"></path>
            <path d="M188.296875,325.847656 C218.098958,325.354167 248.046413,321.386061 277.703125,324.367188 C292.81713,325.886465 247.663198,329.105246 232.519531,330.292969 C222.426827,331.084543 212.257093,329.741295 202.148438,330.292969 C201.388472,330.334443 199.908911,331.975584 200.667969,332.03125 C209.040017,332.645219 217.470453,332.505763 225.851562,332.03125 C230.593516,331.762775 235.187755,330.139221 239.925781,329.808594 C245.837187,329.396086 251.805596,329.230633 257.703125,329.808594 C258.281085,329.865234 258.283552,331.532054 257.703125,331.550781 L242.148438,333.773438 C224.38034,334.346732 206.566343,332.78668 188.816406,333.773438 C187.829649,333.828294 188.159909,335.999559 188.816406,336.738281 C190.363676,338.479342 192.609044,339.505973 194.742188,340.441406 C206.709717,345.689448 219.31827,349.475781 231.039062,355.253906 C236.935554,358.160763 241.612787,363.125478 247.332031,366.367188 C249.103266,367.371136 251.461278,366.889715 253.257812,367.847656 C255.267209,368.919099 260.357043,373.530285 258.445312,372.292969 C212.702583,342.687218 265.869401,376.134515 226.59375,347.105469 C213.879571,337.708286 247.277149,383.458946 214,341.179688 C212.97644,339.879235 217.395918,340.653072 218.964844,341.179688 C228.526969,344.389249 237.976624,348.011804 247.109375,352.292969 C253.820531,355.438962 260.203651,359.291438 266.371094,363.402344 C267.686175,364.278911 270.765397,367.771256 269.332031,367.105469 C258.806575,362.216474 249.189913,355.522179 238.703125,350.550781 C231.783296,347.270347 224.534184,344.679809 217.222656,342.402344 C161.932158,325.17993 208.745206,342.491201 213.519531,347.847656 C220.586051,355.775791 226.050196,365.002777 232.039062,373.773438 C232.972942,375.141099 235.588896,377.233436 234.257812,378.21875 L234.257812,379.699219 C233.721978,380.095862 232.821013,380.05594 232.257812,379.699219 L200.40625,357.476563 C196.487868,354.994726 191.82272,353.888018 187.816406,351.550781 C185.849452,350.403283 184.110999,348.83436 182.628906,347.105469 C181.112951,345.337076 178.183724,343.387557 178.925781,341.179688 C179.509391,339.443252 182.826758,340.936565 184.371094,341.921875 C190.742762,345.987096 195.777745,351.929344 202.148438,355.996094 C207.454131,359.382998 212.915336,363.569681 219.183594,364.144531 C221.790532,364.383609 217.295067,359.105684 215.480469,357.21875 C208.814211,350.286752 200.882873,344.673999 194,337.957031 C190.654479,334.692151 188.630397,330.079918 184.851562,327.328125 C181.729919,325.054906 170.273734,324.502043 173.964844,323.367188 C175.405563,322.924229 219.080111,320.747779 223.109375,320.402344 C224.665453,320.268939 229.114284,319.004556 227.554688,318.921875 C222.03103,318.629042 175.34909,318.298371 167.777344,321.144531 C162.280519,323.210744 180.497945,319.290945 185.332031,322.625 C330.773506,422.935544 154.466981,308.314637 171,324.847656 C171.863479,325.711135 173.359177,325.726365 174.222656,326.589844 C174.571606,326.938794 173.811937,327.79674 174.222656,328.070313 C175.522492,328.936108 177.467998,328.551157 178.667969,329.550781 C180.565188,331.131242 181.006374,334.188836 183.113281,335.476563 C185.718671,337.068957 194.275677,335.663275 192,337.699219 C189.175148,340.226485 177.718212,340.127123 180.628906,337.699219 L178.40625,334.476563 C196.938293,319.018387 225.538034,316.641979 248.035156,314.476563 C252.545561,314.042422 266.160156,314.476563 261.628906,314.476563 C256.44401,314.476563 251.078834,313.121215 246.074219,314.476563 C238.932419,316.410702 232.533074,320.495843 226.074219,324.105469 C210.236074,332.956847 234.591585,333.981693 241.628906,337.699219 C248.354556,341.252102 253.364854,347.59027 260.148438,351.03125 C265.402022,353.696137 283.038698,356.382083 277.183594,355.734375 C201.161242,347.324569 230.709189,347.093619 268.296875,325.847656 C271.090604,324.268536 280.384443,322.374986 277.183594,322.144531 C253.700112,320.453768 229.737703,325.510916 206.554688,321.402344 C200.462166,320.322606 217.127969,314.866185 222.851562,312.515625 C231.013128,309.163842 239.475685,306.507526 248.035156,304.367188 C251.397503,303.526416 255.034683,304.427996 258.40625,303.625 C265.471178,301.942367 272.063109,298.55158 279.148438,296.957031 C282.038397,296.306648 290.997396,296.957031 288.035156,296.957031 C264.813802,296.957031 241.582011,296.260899 218.371094,296.957031 C211.013689,297.177691 192.349472,316.193334 211.964844,312.515625 C218.499074,311.290515 224.895163,309.367704 231.222656,307.328125 C254.780979,299.734429 279.321686,294.423792 301.59375,283.625 C308.037707,280.500595 287.203003,282.641677 280.109375,283.625 C231.68577,290.337508 217.982635,291.35691 190.964844,320.179688 C190.458157,320.720224 190.27386,322.135037 190.964844,322.402344 C193.358608,323.328372 196.062335,323.125944 198.628906,323.144531 C230.233546,323.373419 261.873177,321.693363 293.445312,323.144531 C301.740703,323.525817 277.030941,325.861776 268.742188,326.367188 C259.376769,326.93825 249.966881,325.941068 240.59375,326.367188 C233.64728,326.682987 222.630927,322.21581 219.851562,328.589844 C217.363496,334.295831 229.51647,336.462633 234.667969,339.957031 C247.467641,348.63939 248.541659,349.650806 260.59375,360.699219 C262.71618,362.644896 269.460149,362.662932 268,365.144531 L268.742188,368.105469 C265.840471,373.037086 241.711799,347.337976 229.964844,344.402344 C226.10115,343.436784 215.313963,340.085309 218.109375,342.921875 C226.411702,351.346429 238.217747,355.428078 247.742188,362.441406 C250.13582,364.203959 251.692708,366.884115 253.667969,369.105469" id="Path-17" stroke="#C53E3E" stroke-width="4" sketch:type="MSShapeGroup"></path>
            <circle id="Oval-7" stroke="#979797" fill="#F8F2F2" sketch:type="MSShapeGroup" cx="148" cy="289" r="12"></circle>
            <circle id="Oval-8" stroke="#979797" fill="#F9F7F7" sketch:type="MSShapeGroup" cx="184" cy="288" r="12"></circle>
            <circle id="Oval-9" stroke="#979797" fill="#D8D8D8" sketch:type="MSShapeGroup" cx="150.5" cy="290.5" r="2.5"></circle>
            <circle id="Oval-11" stroke="#979797" fill="#D8D8D8" sketch:type="MSShapeGroup" cx="187.5" cy="287.5" r="3.5"></circle>
            <rect id="Rectangle-6" stroke="#CB958D" stroke-width="7" fill="#1C1D1C" sketch:type="MSShapeGroup" x="42" y="169" width="266" height="49"></rect>
            <text id="Spit-Hot-Fyre" opacity="0.99000001" fill="#FFFDFD" sketch:type="MSTextLayer" font-family="Avenir" font-size="34" font-weight="686" sketch:alignment="middle" letter-spacing="1.87323511">
                <tspan x="55.3569718" y="203" fill="#514F4F">Spit Hot Fyre</tspan>
            </text>
        </g>
    </g>
</svg>